<?xml version="1.0" encoding="utf-8"?>
<!-- Generator: Adobe Illustrator 26.3.1, SVG Export Plug-In . SVG Version: 6.00 Build 0)  -->
<svg version="1.1" id="Layer_1" xmlns="http://www.w3.org/2000/svg" xmlns:xlink="http://www.w3.org/1999/xlink" x="0px" y="0px"
	 viewBox="0 0 17 16" style="enable-background:new 0 0 17 16;" xml:space="preserve">
<style type="text/css">
	.st0{fill:#00EAD7;}
	.st1{fill:#00EBD8;}
	.st2{fill:#00E9D7;}
	.st3{fill:#00E7D4;}
	.st4{fill:#00E6D4;}
	.st5{fill:#008C81;}
	.st6{fill:#00F6E2;}
	.st7{fill:#008076;}
	.st8{fill:#00FAEE;}
	.st9{fill:#00EBD9;}
	.st10{fill:#00E9D6;}
	.st11{fill:#00F6E3;}
</style>
<path class="st0" d="M8.3,10.7C8.3,10.7,8.3,10.6,8.3,10.7c0-0.2,0-0.3,0-0.5c0-3.4,0-6.8,0-10.2c0,0,0,0,0,0c0.1,0,0.1,0,0.1,0
	c0.4,0,0.7,0,1.1,0.1c0,0.1-0.1,0.3-0.1,0.4c-0.1,0.6,0.3,1.1,0.8,1.3c0.1,0,0.3,0.1,0.4,0.1c0.8,0,1.7,0,2.5,0c0.1,0,0.1,0,0.2,0.1
	c0.6,0.6,1.2,1.2,1.6,1.9c0.3,0.4,0.5,0.9,0.7,1.4c0.1,0.3,0.2,0.6,0.3,0.9c0.1,0.2,0.1,0.4,0.1,0.6c0,0.2,0.1,0.4,0.1,0.7
	c0,0.3,0,0.6,0,1c0,0.3,0,0.5-0.1,0.8c0,0.2-0.1,0.4-0.1,0.6c0,0.2-0.1,0.4-0.2,0.6c-0.1,0.2-0.2,0.5-0.2,0.7
	c-0.1,0.4-0.3,0.7-0.5,1c-0.1,0.2-0.3,0.4-0.4,0.6c0,0.1-0.1,0.1-0.2,0.1c-1.2,0-2.5,0-3.7,0c-0.5,0-1-0.2-1.4-0.5
	c-0.4-0.3-0.7-0.6-0.9-1.1c0-0.1,0-0.1-0.1-0.2c0,0,0,0,0,0c0,0,0,0,0-0.1c0,0,0,0,0,0c0,0,0-0.1,0-0.1c0,0,0,0,0,0
	C8.4,10.8,8.3,10.7,8.3,10.7 M10.1,4.9C10.1,4.9,10.1,4.9,10.1,4.9C10.2,5,10.2,5,10.1,4.9C10.2,5,10.3,5,10.3,5c0,0,0,0,0,0
	c0.1,0,0.2,0.1,0.3,0.1c0.6,0,1.3,0,1.9,0c0.2,0,0.3,0,0.5,0c0,0,0.1,0,0.1,0c0,0,0,0,0,0c0,0,0.1,0,0.1,0c0.4-0.2,0.7-0.4,0.8-0.9
	c0.1-0.3,0.1-0.6-0.1-0.8c-0.2-0.5-0.6-0.8-1.2-0.8c-0.7,0-1.4,0-2.1,0c-0.2,0-0.4,0-0.5,0.1c-0.4,0.2-0.7,0.5-0.8,1
	C9.4,4.1,9.6,4.5,10,4.9C10,4.9,10,4.9,10.1,4.9C10,4.9,10,4.9,10.1,4.9C10.1,4.9,10.1,4.9,10.1,4.9C10.1,4.9,10.1,4.9,10.1,4.9
	 M14.2,8.3c0.1,0,0.1,0,0.2,0c0.5-0.1,0.8-0.4,0.9-0.9c0.1-0.3,0-0.5-0.1-0.8c-0.2-0.5-0.6-0.8-1.2-0.8c-1.1,0-2.3,0-3.4,0
	c-0.2,0-0.3,0-0.5,0.1C9.6,6.1,9.3,6.8,9.5,7.4c0.1,0.5,0.5,0.8,0.9,0.9c0.1,0,0.1,0,0.2,0.1c0,0-0.1,0-0.1,0c0,0,0,0,0,0
	c1.3,0,2.5,0,3.8,0c0,0,0,0,0,0C14.3,8.3,14.2,8.3,14.2,8.3 M15.3,11.1c0.1-0.1,0.1-0.3,0.2-0.4c0.1-0.3,0.1-0.7-0.1-1
	c-0.3-0.7-1.1-1-1.8-0.7c-0.8,0.3-1.1,1.1-0.8,1.9c0.3,0.7,1,1,1.7,0.8C14.8,11.6,15.1,11.4,15.3,11.1 M12.2,10.6
	c0-0.2,0-0.5-0.1-0.7c-0.2-0.4-0.5-0.7-1-0.8c-0.5-0.1-0.9,0-1.3,0.3c-0.5,0.4-0.6,1-0.3,1.6c0.2,0.5,0.6,0.8,1.1,0.9
	c0.2,0,0.5,0,0.7-0.1c0.3-0.1,0.6-0.3,0.8-0.6C12.2,10.9,12.2,10.8,12.2,10.6 M14.2,5.8C14.2,5.8,14.3,5.8,14.2,5.8
	c-1.2,0-2.5,0-3.7,0c0,0,0,0,0,0C11.8,5.8,13,5.8,14.2,5.8z"/>
<path class="st1" d="M3.4,6.5C3.4,6.6,3.3,6.7,3.3,6.8c0,0.1-0.1,0.1-0.1,0.2c0,0.2,0,0.5,0,0.7c0,0.2,0.1,0.3,0.2,0.4
	c0,0,0.1,0.1,0.1,0.1c0,0.6,0,1.1,0,1.7c0,0.2,0.1,0.3,0.3,0.3C3.8,10.2,4,10,4,9.9c0-0.6,0-1.1,0-1.7C4,8.2,4,8.1,4,8.1
	C4.1,8,4.2,7.8,4.2,7.7c0-0.2,0-0.5,0-0.7c0-0.2-0.1-0.3-0.2-0.4c0,0,0,0,0-0.1c0-0.4,0-0.9,0-1.3c0,0,0,0,0,0c0.1,0,0.2,0,0.3,0.1
	c0.3,0.1,0.6,0.2,0.9,0.4c0.4,0.3,0.8,0.7,1,1.2c0.1,0.3,0.2,0.7,0.2,1.1c0,1.6,0,3.2,0,4.8c0,0.7-0.2,1.3-0.7,1.8
	c-0.3,0.3-0.6,0.5-0.9,0.7c0,0-0.1,0-0.1,0c-0.6-0.3-1.2-0.7-1.7-1.2c-0.5-0.5-1-1-1.4-1.6c-0.1-0.2-0.2-0.4-0.4-0.6
	c0,0,0-0.1,0-0.1c0-1.3,0-2.6,0-3.9c0-0.4,0.1-0.7,0.3-1c0.3-0.5,0.7-1,1.3-1.2c0.2-0.1,0.5-0.2,0.7-0.2c0.1,0,0.1,0,0.1,0.1
	C3.4,5.7,3.4,6.1,3.4,6.5z"/>
<path class="st2" d="M4.1,4.7c-0.3,0-0.6,0-0.8,0c-1,0.2-1.8,0.7-2.4,1.6C0.8,6.5,0.7,6.8,0.6,7.1C0.6,7.3,0.5,7.6,0.5,7.9
	c0,0.8,0,1.5,0,2.3c0,0,0,0.1,0,0.1c0-0.1-0.1-0.2-0.1-0.3C0.4,9.7,0.3,9.4,0.3,9.1c0-0.2,0-0.3,0-0.5c0-0.4,0-0.7,0-1.1
	c0-0.2,0-0.5,0.1-0.7c0-0.2,0-0.3,0.1-0.5c0-0.2,0.1-0.3,0.1-0.5c0.1-0.2,0.1-0.4,0.2-0.6c0.1-0.4,0.3-0.7,0.5-1.1
	c0.2-0.3,0.4-0.6,0.6-0.9c0.1-0.1,0.1-0.1,0.2,0c0.3,0.2,0.7,0.4,1,0.5c0.3,0.1,0.7,0.1,1,0.1c0.4,0,0.8-0.1,1.2-0.3
	c0.7-0.4,1.2-0.9,1.5-1.6c0.1-0.3,0.2-0.7,0.2-1c0-0.2,0-0.4,0-0.6c0-0.1,0-0.1,0.1-0.1c0.1,0,0.2,0,0.3-0.1c0.1,0,0.3,0,0.4,0
	c0.1,0,0.1,0,0.1,0.1c0,0,0,0,0,0c0,3.3,0,6.7,0,10.1c0,0.6,0.2,1.2,0.5,1.7C8.6,12.4,9,12.8,9.5,13c0.2,0.1,0.5,0.2,0.8,0.2
	c0.2,0,0.4,0,0.6,0c1,0,2.1,0,3.2,0c0,0,0.1,0,0.1,0c0,0,0,0.1-0.1,0.1c-0.3,0.2-0.5,0.5-0.8,0.7c0,0-0.1,0-0.2,0
	c-0.9,0-1.9,0-2.8,0c-1,0-1.7,0.5-2.2,1.3c-0.1,0.1-0.1,0.3-0.2,0.4c0,0.1,0,0.1-0.1,0.1c-0.2,0-0.5,0-0.7-0.1c-0.2,0-0.3,0-0.5-0.1
	c-0.2,0-0.4-0.1-0.6-0.2c-0.2-0.1-0.4-0.1-0.6-0.2c0,0,0,0-0.1,0c0,0,0,0,0,0c0.3-0.2,0.5-0.4,0.7-0.6c0.3-0.3,0.5-0.7,0.7-1.1
	c0.1-0.3,0.1-0.7,0.1-1.1c0-1.6,0-3.2,0-4.8c0-1.2-0.6-2.2-1.7-2.8C4.9,4.9,4.7,4.8,4.4,4.7C4.3,4.7,4.2,4.7,4.1,4.7 M6.9,8.3
	c0,1.5,0,3.1,0,4.6c0,0,0,0,0,0c0-1.8,0-3.6,0-5.3c0,0,0,0,0,0C6.9,7.8,6.9,8,6.9,8.3z"/>
<path class="st0" d="M2.4,3C2.4,2.9,2.3,2.9,2.2,2.8c-0.1,0-0.1-0.1,0-0.1C2.5,2.3,3,1.9,3.4,1.6c0.5-0.4,1-0.7,1.6-0.9
	c0.3-0.1,0.6-0.2,0.9-0.3c0.1,0,0.3-0.1,0.4-0.1c0.1,0,0.1,0,0.1,0.1c0,0.2,0,0.4,0,0.5c0,0.3-0.1,0.7-0.3,1c-0.3,0.6-0.7,1-1.3,1.3
	C4.5,3.2,4.3,3.2,4.1,3.3c-0.2,0-0.5,0-0.7,0C3.1,3.2,2.8,3.2,2.4,3C2.5,3,2.4,3,2.4,3z"/>
<path class="st3" d="M10.4,14.7c0.7,0,1.4,0,2.1,0c-0.1,0.2-1.1,0.7-1.9,0.9C9.9,15.9,9.2,16,8.5,16c0-0.2,0.4-0.7,0.8-1
	C9.6,14.8,10,14.7,10.4,14.7z"/>
<path class="st4" d="M11.1,0.5c0.5,0.2,1,0.4,1.4,0.7c0,0,0.1,0,0.1,0.1c0,0,0,0,0,0c0,0-0.1,0-0.1,0c-0.6,0-1.2,0-1.8,0
	c-0.4,0-0.6-0.2-0.8-0.5c-0.1-0.2,0-0.4,0.1-0.6c0-0.1,0.1,0,0.1,0C10.5,0.3,10.8,0.4,11.1,0.5C11,0.5,11.1,0.5,11.1,0.5z"/>
<path class="st5" d="M8.3,10.7c0,0.1,0,0.1,0.1,0.2C8.3,10.8,8.3,10.8,8.3,10.7z"/>
<path class="st5" d="M8.4,0c0,0-0.1,0-0.1,0C8.3,0,8.4,0,8.4,0z"/>
<path class="st5" d="M8.4,11.1c0,0,0,0.1,0.1,0.1C8.5,11.2,8.5,11.2,8.4,11.1z"/>
<path class="st5" d="M8.4,10.9C8.4,10.9,8.4,11,8.4,10.9C8.4,11,8.4,11,8.4,10.9z"/>
<path class="st5" d="M8.4,11C8.4,11.1,8.4,11.1,8.4,11C8.4,11.1,8.4,11.1,8.4,11z"/>
<path class="st0" d="M14.1,8.3C14.1,8.3,14.2,8.3,14.1,8.3c0.1,0,0.1,0,0.1,0c0,0,0,0,0,0c-1.3,0-2.5,0-3.8,0c0,0,0,0,0,0
	c0,0,0.1,0,0.1,0c0,0,0.1,0,0.1,0"/>
<path class="st6" d="M14.2,5.8c-1.2,0-2.5,0-3.7,0c0,0,0,0,0,0C11.8,5.7,13,5.7,14.2,5.8C14.3,5.7,14.2,5.8,14.2,5.8z"/>
<path class="st7" d="M10.2,5"/>
<path class="st7" d="M10.3,5"/>
<path class="st7" d="M13.2,5.1C13.2,5,13.2,5,13.2,5.1C13.3,5,13.2,5,13.2,5.1z"/>
<path class="st8" d="M6.9,8.3c0-0.2,0-0.5,0-0.7c0,0,0,0,0,0c0,1.8,0,3.6,0,5.3c0,0,0,0,0,0C6.9,11.4,6.9,9.8,6.9,8.3z"/>
<path class="st9" d="M10.4,7.7C10.4,7.7,10.4,7.7,10.4,7.7C10.3,7.7,10.3,7.7,10.4,7.7C10,7.5,9.9,7.1,10,6.7
	c0.1-0.3,0.4-0.4,0.7-0.4c1.1,0,2.2,0,3.4,0c0.4,0,0.8,0.4,0.7,0.8c0,0.1-0.1,0.2-0.1,0.3c0,0,0,0,0,0c0,0,0,0,0,0
	c0,0-0.1,0.1-0.1,0.1c0,0,0,0,0,0c0,0,0,0,0,0c0,0,0,0,0,0c0,0,0,0-0.1,0c0,0,0,0,0,0c0,0,0,0-0.1,0c0,0,0,0,0,0c-0.2,0-0.5,0-0.7,0
	C12.6,7.8,11.5,7.8,10.4,7.7C10.4,7.7,10.4,7.7,10.4,7.7C10.4,7.7,10.4,7.7,10.4,7.7z"/>
<path class="st2" d="M11.1,4.6c-0.1,0-0.3,0-0.4,0c-0.3,0-0.6-0.2-0.7-0.5c-0.1-0.4,0.1-0.8,0.5-0.9c0.1,0,0.2,0,0.3,0
	c0.7,0,1.4,0,2.2,0c0.3,0,0.6,0.2,0.7,0.5c0.1,0.4-0.1,0.7-0.4,0.9c-0.1,0-0.2,0.1-0.3,0.1C12.3,4.6,11.7,4.6,11.1,4.6 M11.7,4.5
	c-0.4,0-0.7,0-1.1,0c0,0,0,0,0,0c0.8,0,1.6,0,2.3,0c0,0,0,0,0,0C12.6,4.5,12.1,4.5,11.7,4.5z"/>
<path class="st10" d="M13.8,11.2c-0.3-0.1-0.5-0.4-0.5-0.7c-0.1-0.5,0.2-0.9,0.6-1c0.4-0.1,0.9,0.1,1.1,0.5c0.2,0.5-0.1,1-0.6,1.2
	C14.1,11.3,14,11.3,13.8,11.2z"/>
<path class="st10" d="M11.4,11c-0.2,0.1-0.3,0.2-0.5,0.2c-0.4,0-0.7-0.2-0.9-0.6c-0.1-0.4,0.1-0.9,0.5-1.1c0.4-0.2,1,0,1.2,0.5
	C11.8,10.4,11.7,10.8,11.4,11z"/>
<path class="st11" d="M11.7,4.5c0.4,0,0.8,0,1.3,0c0,0,0,0,0,0c-0.8,0-1.6,0-2.3,0c0,0,0,0,0,0C11,4.5,11.3,4.5,11.7,4.5z"/>
</svg>
